<?xml version="1.0" standalone="no"?>
<!DOCTYPE svg PUBLIC "-//W3C//DTD SVG 20010904//EN"
 "http://www.w3.org/TR/2001/REC-SVG-20010904/DTD/svg10.dtd">
<svg version="1.0" xmlns="http://www.w3.org/2000/svg"
 width="2500.000000pt" height="2500.000000pt" viewBox="0 0 2500.000000 2500.000000"
 preserveAspectRatio="xMidYMid meet">

<g transform="translate(0.000000,2500.000000) scale(0.100000,-0.100000)"
fill="#000000" stroke="none">
<path d="M1295 17257 c-346 -8 -474 -12 -507 -15 -23 -3 -61 -67 -53 -91 3
-10 18 -23 33 -29 30 -11 342 -35 442 -33 36 1 90 -5 120 -14 30 -8 74 -15 97
-15 23 0 64 -4 90 -9 26 -5 102 -15 168 -21 66 -7 138 -19 160 -27 22 -8 67
-24 100 -35 33 -12 95 -45 138 -73 63 -43 86 -65 123 -124 59 -92 73 -139 83
-286 5 -66 10 -1802 10 -3857 1 -3248 -1 -3755 -14 -3870 -38 -339 -34 -324
-105 -413 -21 -27 -51 -68 -65 -91 -46 -74 -153 -134 -239 -134 -24 0 -64 -7
-90 -16 -26 -9 -56 -14 -67 -11 -11 3 -43 -1 -72 -8 -29 -8 -155 -19 -282 -25
-277 -14 -291 -15 -430 -30 -60 -7 -127 -12 -148 -11 -22 0 -58 -8 -82 -19
-36 -16 -56 -19 -117 -14 -69 6 -76 5 -103 -19 -25 -21 -28 -29 -19 -44 10
-16 33 -19 180 -26 213 -11 1004 -10 1064 1 26 4 180 2 360 -5 247 -11 600
-12 1640 -6 729 4 1798 8 2375 8 578 0 1075 4 1105 9 30 4 100 19 155 33 55
13 150 29 210 34 118 10 203 27 250 51 17 9 64 21 105 27 42 7 102 25 136 41
33 17 70 30 81 30 34 0 150 39 163 54 6 8 37 21 67 27 31 7 72 24 91 37 19 13
59 32 88 43 29 11 64 29 78 40 13 11 44 26 68 35 24 8 59 25 78 37 19 13 51
29 70 37 19 7 51 25 70 40 20 15 54 37 76 48 22 11 47 28 54 37 8 9 35 27 60
40 25 13 52 31 60 40 7 9 27 23 44 32 46 23 163 113 234 179 34 33 83 77 108
99 70 62 155 147 194 195 19 23 46 52 59 64 48 43 127 127 166 176 22 28 54
67 71 88 17 20 39 53 49 72 9 19 30 49 45 65 25 28 48 64 110 169 14 24 38 58
53 77 36 44 117 170 117 184 0 5 14 27 30 49 16 21 36 63 45 93 9 30 29 75 45
101 16 26 34 70 40 97 6 28 22 66 35 85 13 19 31 55 40 80 9 24 24 59 35 77
11 19 27 59 36 91 9 31 23 71 32 87 23 46 42 122 52 207 6 54 17 91 35 122 18
30 33 82 46 156 11 61 36 153 56 203 31 80 36 103 35 172 -1 47 6 113 18 160
38 161 45 274 44 680 0 418 -19 682 -50 730 -9 14 -19 66 -24 131 -13 146 -24
216 -49 305 -11 41 -28 119 -37 174 -9 55 -29 129 -44 165 -15 36 -33 83 -40
105 -7 22 -24 62 -37 89 -14 27 -32 72 -40 100 -8 28 -26 72 -39 98 -13 25
-28 68 -34 95 -6 26 -24 67 -41 90 -16 23 -36 61 -45 85 -8 24 -25 59 -38 78
-13 19 -28 52 -35 72 -7 20 -23 53 -37 73 -13 20 -34 55 -45 78 -12 23 -30 53
-41 66 -10 14 -27 44 -38 68 -10 24 -26 46 -35 49 -9 4 -27 28 -40 55 -14 26
-29 50 -35 54 -6 3 -20 25 -31 48 -12 23 -36 58 -53 78 -28 33 -54 65 -154
192 -18 23 -51 66 -75 96 -59 75 -240 257 -311 311 -32 25 -92 78 -134 118
-42 39 -79 72 -83 72 -4 0 -28 17 -52 38 -24 20 -57 45 -73 55 -16 9 -54 33
-84 51 -30 19 -66 45 -80 58 -14 13 -38 33 -55 43 -16 10 -34 24 -40 31 -13
17 -147 94 -235 134 -79 37 -146 74 -175 97 -15 13 -58 32 -95 43 -37 11 -73
27 -81 36 -19 23 -59 41 -109 49 -25 4 -64 20 -87 35 -30 19 -66 31 -120 39
-54 8 -86 19 -109 36 -18 14 -63 32 -101 40 -37 9 -97 29 -133 44 -36 16 -90
32 -120 35 -104 12 -185 29 -245 52 -64 23 -221 54 -280 54 -18 0 -60 7 -92
15 -92 25 -385 47 -688 54 -216 5 -287 10 -310 21 -25 13 -197 16 -1135 24
-1466 11 -3131 13 -3565 3z m4165 -257 c160 -11 537 -44 670 -60 47 -5 124
-21 170 -35 46 -14 97 -25 114 -25 38 0 119 -21 211 -53 39 -14 148 -50 244
-82 95 -31 195 -67 220 -80 26 -13 63 -26 83 -30 20 -4 51 -18 69 -31 18 -13
57 -33 86 -44 29 -11 71 -33 94 -50 23 -16 47 -30 52 -30 6 0 36 -17 66 -37
31 -20 88 -57 126 -82 268 -175 568 -458 780 -736 56 -73 188 -271 243 -365
291 -497 509 -1105 636 -1772 67 -356 91 -696 75 -1088 -14 -348 -28 -490 -86
-845 -19 -121 -38 -251 -42 -290 -4 -38 -14 -84 -23 -100 -9 -17 -21 -60 -28
-95 -6 -36 -18 -85 -26 -110 -34 -102 -74 -244 -74 -264 0 -12 -7 -32 -16 -44
-9 -13 -29 -60 -44 -105 -109 -317 -303 -695 -497 -965 -169 -236 -331 -431
-483 -583 -162 -162 -270 -246 -468 -365 -59 -35 -121 -73 -138 -84 -16 -11
-36 -20 -42 -20 -11 0 -75 -32 -136 -67 -12 -7 -29 -13 -39 -13 -21 0 -130
-36 -167 -55 -14 -7 -52 -18 -85 -25 -33 -6 -88 -25 -122 -41 -62 -29 -217
-59 -307 -59 -24 0 -88 -12 -142 -26 -106 -28 -205 -37 -599 -55 -121 -5 -269
-14 -330 -20 -132 -12 -750 -30 -1105 -32 -275 -2 -338 6 -388 48 -15 12 -42
26 -61 30 -28 6 -37 15 -57 60 -52 113 -55 158 -50 669 4 436 8 3989 6 6366
-1 1409 0 1474 27 1530 12 25 24 58 28 73 7 35 48 74 89 86 42 12 1285 13
1466 1z"/>
<path d="M13093 15185 c-87 -23 -133 -41 -159 -61 -20 -16 -50 -39 -66 -51
-16 -12 -37 -32 -46 -45 -8 -12 -28 -38 -44 -56 -15 -17 -35 -58 -44 -90 -9
-31 -30 -81 -46 -110 l-30 -53 4 -147 c3 -138 5 -149 28 -182 14 -19 33 -52
42 -73 24 -52 114 -145 169 -172 25 -13 51 -31 59 -40 7 -9 21 -20 31 -26 25
-13 228 -39 303 -39 81 1 234 35 260 59 12 10 38 30 58 44 34 23 138 146 138
164 0 5 15 33 34 62 49 75 61 158 47 308 -11 113 -13 118 -56 183 -46 69 -159
192 -233 254 -24 19 -62 41 -85 47 -23 6 -62 22 -87 35 -61 32 -124 30 -277
-11z"/>
<path d="M17705 12323 c-561 -35 -641 -42 -756 -72 -361 -93 -718 -298 -985
-565 -359 -360 -590 -791 -674 -1258 -70 -387 -39 -856 82 -1253 33 -110 112
-306 138 -345 9 -14 20 -34 24 -45 7 -20 40 -73 130 -211 45 -68 228 -261 286
-302 14 -9 52 -43 84 -74 46 -44 74 -62 122 -78 34 -12 68 -28 75 -36 7 -9 29
-24 48 -34 20 -10 44 -27 55 -39 10 -11 42 -29 71 -40 29 -11 69 -31 89 -45
20 -13 69 -32 107 -41 39 -9 89 -25 111 -36 23 -12 95 -30 162 -41 66 -11 138
-29 159 -40 48 -24 252 -37 583 -38 248 0 366 12 559 56 61 13 124 27 140 30
33 6 226 64 320 96 93 32 293 130 397 193 190 118 307 215 458 378 158 172
226 262 284 374 14 29 30 54 36 58 9 6 28 38 94 164 50 94 126 335 126 397 0
23 7 61 15 85 9 24 20 85 25 134 6 50 14 124 19 165 6 52 5 142 -5 290 -14
223 -32 348 -63 460 -10 36 -26 101 -36 145 -20 95 -83 283 -114 340 -11 22
-21 45 -21 51 0 12 -138 230 -189 299 -17 22 -33 49 -37 60 -11 30 -352 366
-406 400 -27 17 -101 64 -165 105 -162 103 -300 170 -372 180 -32 4 -80 20
-107 34 -27 14 -56 26 -64 26 -8 0 -62 12 -120 27 -143 36 -482 59 -685 46z
m190 -256 c503 -128 874 -551 1048 -1197 91 -336 136 -794 116 -1187 -17 -361
-78 -640 -194 -903 -176 -397 -507 -664 -935 -756 -115 -25 -348 -25 -440 0
-208 56 -371 150 -538 310 -276 265 -470 609 -582 1031 -84 315 -132 808 -111
1120 38 545 213 1004 490 1285 168 169 332 259 569 311 73 16 118 18 282 15
168 -3 209 -7 295 -29z"/>
<path d="M23890 12220 c-14 -5 -69 -16 -122 -24 -62 -9 -107 -21 -125 -34 -15
-11 -45 -27 -67 -36 -21 -9 -56 -32 -77 -51 -22 -19 -44 -35 -50 -35 -18 0
-300 -294 -321 -335 -22 -42 -67 -102 -109 -144 -35 -36 -136 -179 -243 -344
-50 -75 -93 -134 -97 -130 -5 5 -12 224 -17 488 -9 528 -9 525 -74 580 -44 37
-132 35 -213 -5 -33 -16 -65 -30 -70 -30 -6 0 -42 -20 -79 -45 -38 -25 -75
-45 -82 -45 -7 0 -28 -13 -47 -30 -19 -17 -55 -34 -83 -40 -27 -6 -68 -22 -91
-36 -23 -13 -69 -33 -103 -43 -33 -11 -77 -31 -96 -46 -20 -15 -57 -34 -82
-41 -25 -8 -59 -25 -76 -38 -38 -28 -52 -33 -142 -46 -39 -5 -93 -21 -120 -35
-27 -13 -81 -31 -120 -39 -39 -9 -87 -24 -105 -34 -19 -11 -60 -25 -91 -31
-74 -16 -105 -39 -90 -68 19 -35 65 -45 130 -28 31 8 68 15 82 15 15 0 71 13
126 30 180 54 252 50 364 -22 51 -33 57 -41 78 -104 13 -38 27 -87 33 -109 6
-26 9 -545 7 -1455 l-3 -1415 -39 -110 c-42 -115 -105 -228 -137 -246 -11 -5
-56 -18 -102 -29 -45 -10 -102 -26 -127 -35 -24 -9 -83 -21 -130 -26 -47 -5
-98 -13 -115 -18 -16 -5 -45 -9 -63 -8 -18 0 -38 -5 -44 -11 -9 -9 0 -12 38
-12 27 0 63 -4 81 -9 78 -22 1239 -33 1908 -18 349 9 430 16 422 40 -5 16 -47
24 -187 36 -74 6 -140 19 -185 35 -38 13 -99 30 -135 37 -57 11 -70 18 -108
58 -23 25 -45 57 -49 71 -3 14 -19 54 -36 90 -23 53 -31 86 -38 177 -4 61 -7
547 -4 1080 l3 969 37 114 c21 63 53 149 72 190 19 41 45 100 58 131 30 75
183 284 309 422 167 183 299 278 435 313 136 34 213 -4 371 -186 101 -116 135
-145 203 -172 54 -23 83 -28 148 -28 51 0 90 5 108 15 50 25 110 103 127 164
8 31 26 79 40 106 32 67 34 181 4 238 -12 21 -30 63 -41 93 -11 30 -24 54 -29
54 -4 0 -46 38 -93 85 -47 47 -90 85 -95 85 -6 0 -29 16 -52 35 -48 40 -85 52
-195 66 -149 18 -160 18 -185 9z"/>
<path d="M13534 12170 c-43 -9 -70 -22 -449 -215 -246 -125 -296 -152 -388
-208 -30 -18 -70 -32 -113 -38 -44 -6 -78 -18 -98 -33 -61 -46 -95 -58 -145
-51 -54 7 -105 -6 -136 -35 -12 -11 -46 -28 -76 -38 -73 -23 -72 -44 2 -56 87
-14 141 -1 201 46 51 41 52 41 96 29 24 -6 103 -18 174 -26 141 -16 156 -22
198 -90 45 -73 44 -15 63 -2680 2 -245 1 -263 -19 -310 -12 -27 -25 -73 -29
-102 -15 -111 -42 -189 -84 -247 -44 -59 -62 -70 -143 -87 -28 -6 -64 -24 -87
-43 l-39 -32 -152 -3 c-136 -2 -203 -12 -186 -28 3 -3 92 -7 198 -10 223 -4
313 -8 492 -18 190 -11 354 -12 1051 -2 347 4 640 12 653 17 24 10 29 34 10
47 -7 4 -47 11 -88 15 -154 15 -216 24 -236 36 -12 6 -62 18 -110 27 -126 22
-144 29 -196 83 -39 40 -50 60 -72 137 -40 142 -46 256 -44 978 1 369 1 715 1
767 0 52 1 318 1 590 1 509 0 950 -2 1217 -2 227 -23 341 -68 362 -28 12 -118
13 -180 1z"/>
</g>
</svg>
