<?xml version="1.0" standalone="no"?>
<!DOCTYPE svg PUBLIC "-//W3C//DTD SVG 20010904//EN"
 "http://www.w3.org/TR/2001/REC-SVG-20010904/DTD/svg10.dtd">
<svg version="1.0" xmlns="http://www.w3.org/2000/svg"
 width="2500.000000pt" height="2500.000000pt" viewBox="0 0 2500.000000 2500.000000"
 preserveAspectRatio="xMidYMid meet">

<g transform="translate(0.000000,2500.000000) scale(0.100000,-0.100000)"
fill="#000000" stroke="none">
<path d="M17414 24559 c-62 -23 -77 -39 -98 -102 -20 -59 -23 -329 -4 -374 6
-16 14 -124 19 -258 4 -130 12 -244 19 -262 16 -45 68 -63 179 -63 53 0 105
-6 131 -15 23 -8 58 -15 76 -15 19 0 64 -5 101 -10 96 -14 342 -40 379 -40 17
0 43 -9 57 -21 15 -11 54 -25 89 -30 125 -20 167 -30 178 -43 6 -8 40 -28 75
-45 36 -17 65 -35 65 -41 0 -5 17 -18 38 -29 21 -11 54 -38 73 -60 19 -23 49
-59 68 -81 51 -61 81 -182 81 -333 0 -86 -4 -126 -15 -147 -8 -16 -20 -53 -26
-82 -6 -29 -19 -62 -29 -73 -24 -27 -46 -73 -55 -112 -3 -18 -11 -35 -16 -38
-25 -16 -101 -154 -124 -227 -14 -46 -35 -92 -45 -103 -10 -11 -32 -58 -48
-105 -17 -47 -40 -104 -51 -127 -12 -23 -21 -46 -21 -51 0 -4 -14 -30 -30 -56
-17 -27 -38 -76 -46 -110 -9 -33 -27 -77 -40 -96 -13 -20 -28 -60 -34 -90 -6
-30 -22 -72 -36 -93 -14 -22 -32 -57 -40 -80 -8 -23 -28 -62 -44 -87 -16 -25
-34 -70 -41 -100 -6 -30 -21 -71 -34 -90 -13 -19 -37 -71 -53 -115 -43 -117
-82 -207 -102 -235 -10 -14 -27 -58 -38 -98 -12 -41 -33 -89 -47 -107 -14 -19
-38 -71 -54 -117 -34 -101 -70 -185 -95 -222 -9 -15 -31 -73 -48 -129 -16 -56
-40 -118 -52 -137 -31 -47 -102 -216 -110 -261 -4 -21 -15 -48 -25 -60 -26
-35 -48 -79 -56 -119 -4 -19 -20 -62 -36 -96 -16 -34 -29 -65 -29 -70 0 -6
-16 -34 -35 -64 -19 -31 -40 -80 -46 -113 -7 -32 -23 -75 -37 -95 -14 -20 -37
-73 -53 -117 -30 -89 -40 -111 -86 -200 -17 -34 -41 -94 -52 -132 -12 -39 -30
-82 -42 -96 -11 -15 -31 -59 -45 -98 -14 -40 -34 -89 -44 -109 -10 -20 -26
-65 -35 -100 -9 -35 -27 -77 -40 -92 -13 -15 -31 -54 -39 -85 -9 -32 -30 -85
-46 -118 -17 -33 -30 -65 -30 -71 0 -5 -13 -30 -28 -55 -16 -24 -36 -66 -45
-93 -9 -27 -23 -56 -31 -65 -8 -9 -26 -53 -40 -99 -14 -46 -37 -98 -50 -115
-13 -18 -34 -63 -46 -102 -13 -38 -33 -90 -45 -115 -12 -25 -26 -64 -30 -87
-4 -24 -17 -58 -30 -77 -13 -19 -35 -68 -50 -108 -14 -40 -35 -91 -46 -114
-10 -22 -19 -45 -19 -50 0 -6 -16 -37 -36 -70 -20 -32 -42 -86 -51 -119 -8
-33 -23 -72 -34 -87 -11 -15 -32 -63 -48 -105 -40 -109 -87 -217 -106 -246 -8
-14 -24 -55 -35 -92 -11 -38 -31 -85 -45 -104 -13 -20 -35 -68 -48 -107 -14
-38 -33 -87 -44 -109 -12 -22 -26 -66 -32 -97 -7 -31 -21 -68 -32 -82 -11 -13
-26 -44 -35 -67 -8 -24 -27 -64 -43 -89 -16 -25 -34 -69 -40 -98 -6 -29 -22
-69 -36 -90 -13 -20 -31 -56 -39 -80 -9 -24 -24 -55 -34 -70 -10 -15 -27 -57
-36 -94 -10 -38 -31 -87 -46 -110 -15 -24 -35 -72 -44 -108 -9 -35 -23 -71
-30 -80 -23 -26 -43 -73 -54 -127 -6 -28 -23 -68 -37 -88 -14 -21 -29 -54 -35
-74 -6 -20 -23 -55 -39 -78 -16 -24 -31 -62 -35 -89 -3 -26 -19 -68 -35 -93
-16 -25 -37 -75 -46 -111 -9 -36 -28 -79 -41 -97 -13 -17 -29 -55 -35 -85 -6
-29 -23 -73 -37 -98 -35 -58 -50 -98 -51 -131 -1 -14 -13 -44 -27 -65 -15 -21
-34 -59 -42 -84 -8 -25 -26 -60 -39 -78 -14 -18 -32 -61 -39 -95 -8 -34 -28
-82 -44 -107 -16 -25 -34 -70 -41 -100 -6 -30 -22 -71 -35 -91 -13 -19 -36
-71 -50 -115 -15 -43 -30 -84 -35 -89 -4 -6 -17 -36 -29 -67 -11 -31 -29 -67
-40 -81 -10 -13 -28 -56 -39 -94 -10 -39 -30 -88 -44 -109 -14 -22 -31 -65
-37 -97 -7 -33 -22 -70 -36 -87 -14 -16 -32 -50 -41 -77 -9 -26 -29 -68 -44
-92 -16 -24 -33 -69 -40 -100 -6 -31 -21 -69 -32 -85 -11 -16 -35 -68 -53
-115 -48 -128 -85 -214 -99 -231 -22 -27 -37 -62 -51 -121 -7 -31 -24 -73 -38
-93 -13 -20 -27 -55 -31 -79 -4 -23 -22 -69 -41 -102 -18 -33 -36 -79 -40
-103 -4 -23 -20 -63 -36 -88 -16 -25 -33 -69 -39 -97 -6 -29 -26 -77 -45 -107
-19 -30 -38 -79 -44 -109 -6 -34 -20 -65 -38 -86 -16 -18 -32 -50 -35 -71 -4
-22 -18 -55 -31 -73 -14 -19 -33 -57 -42 -85 -9 -28 -27 -62 -39 -76 -12 -14
-42 -65 -65 -115 l-42 -90 -48 101 c-26 55 -62 121 -81 146 -66 88 -109 166
-109 197 0 14 -14 54 -30 90 -29 61 -41 86 -82 166 -62 119 -108 220 -127 276
-12 37 -30 74 -41 84 -10 9 -24 39 -30 66 -7 27 -25 65 -40 85 -16 19 -36 59
-44 88 -9 29 -24 61 -35 70 -21 19 -35 55 -45 117 -4 21 -18 54 -33 75 -14 22
-37 66 -49 98 -13 33 -30 66 -38 75 -15 17 -56 110 -106 242 -15 41 -40 92
-53 113 -14 20 -33 59 -42 86 -9 26 -22 54 -30 60 -8 6 -22 35 -31 63 -9 29
-29 70 -45 92 -15 22 -32 65 -39 95 -6 30 -24 75 -40 100 -16 25 -36 66 -45
90 -9 24 -22 51 -31 61 -15 17 -71 144 -104 235 -27 75 -41 182 -30 224 5 19
14 67 20 107 6 39 24 98 40 130 15 33 33 83 39 112 6 29 23 68 37 86 14 19 35
65 46 102 11 37 29 85 39 105 11 21 26 65 33 99 8 33 21 68 29 77 26 30 36 59
48 133 8 54 20 85 44 120 18 26 36 65 40 86 4 21 20 65 35 99 16 33 36 91 44
127 9 37 24 84 35 105 17 34 28 69 45 143 3 14 16 39 28 54 23 29 64 138 117
310 15 50 37 108 49 131 11 23 28 72 37 110 9 38 27 94 41 124 14 30 29 77 34
103 6 26 21 63 36 82 14 19 35 65 46 102 11 37 30 86 41 108 11 22 26 69 34
105 7 35 26 91 42 125 15 33 31 78 35 100 4 22 19 57 32 78 16 24 31 69 40
120 10 58 22 93 42 122 18 24 32 59 36 90 3 27 17 65 30 85 13 19 35 78 50
129 15 52 38 115 50 140 13 25 31 79 40 119 8 41 25 87 36 102 28 39 73 151
111 273 17 56 37 110 45 122 7 12 23 59 35 105 11 46 31 104 43 129 13 25 29
72 36 104 6 33 22 70 37 87 16 20 27 49 32 85 4 32 17 69 30 86 12 16 35 75
52 131 16 55 39 118 50 139 10 21 26 68 34 104 9 36 27 90 40 119 13 29 29 75
35 102 6 27 22 65 35 85 13 20 28 62 34 93 6 32 20 71 32 87 12 17 34 72 49
123 16 51 38 112 49 134 12 23 27 68 35 101 7 32 25 76 40 97 14 21 26 45 26
53 0 56 25 145 50 175 15 20 35 63 45 98 9 35 27 83 40 108 12 25 29 77 38
117 9 40 27 94 40 120 14 26 30 72 36 102 6 29 22 67 36 83 13 16 30 48 36 71
6 23 26 59 45 79 19 21 34 42 34 47 0 14 101 114 163 160 32 24 67 57 78 72
13 19 32 31 57 35 46 8 70 20 102 50 14 12 57 32 97 43 39 10 91 31 116 45 24
14 52 26 61 26 10 0 48 7 85 15 36 8 116 26 176 39 174 39 429 68 740 85 174
10 208 21 276 88 52 50 73 91 89 173 6 31 24 83 40 115 17 33 30 67 30 75 0
32 22 91 44 117 47 59 137 382 120 435 -3 11 -32 32 -67 49 -53 25 -75 29
-147 30 -47 1 -960 0 -2030 -1 -1737 -2 -1950 -3 -1988 -17 -40 -15 -46 -15
-78 0 -47 23 -258 24 -311 2 -22 -9 -67 -15 -120 -15 -52 0 -97 6 -120 15 -21
9 -67 15 -113 15 -46 0 -92 -6 -113 -15 -27 -11 -77 -15 -200 -15 -124 0 -173
4 -200 15 -25 10 -72 15 -150 15 -79 0 -126 -5 -150 -15 -20 -8 -58 -15 -85
-15 -57 0 -153 -23 -187 -46 -14 -9 -34 -42 -50 -85 -15 -38 -30 -71 -35 -74
-4 -3 -18 -46 -30 -97 -12 -51 -31 -107 -41 -124 -10 -17 -28 -70 -39 -118
-12 -48 -31 -106 -44 -131 -13 -24 -29 -74 -35 -111 -7 -37 -23 -86 -37 -109
-13 -23 -24 -51 -24 -62 0 -59 87 -93 240 -93 58 0 103 -6 140 -19 30 -11 111
-28 179 -40 93 -15 131 -26 155 -44 17 -13 48 -30 69 -38 25 -9 67 -43 120
-99 75 -78 85 -93 121 -185 l38 -100 -6 -150 c-6 -136 -9 -155 -35 -210 -16
-33 -36 -93 -45 -134 -9 -41 -25 -88 -36 -106 -11 -17 -26 -60 -34 -95 -8 -35
-25 -77 -36 -92 -12 -17 -28 -64 -36 -111 -9 -48 -25 -96 -39 -117 -13 -19
-31 -64 -40 -100 -9 -36 -27 -81 -40 -102 -13 -20 -31 -67 -40 -105 -9 -37
-27 -91 -40 -120 -13 -28 -33 -89 -45 -134 -11 -44 -30 -100 -42 -123 -11 -22
-27 -66 -34 -98 -7 -31 -24 -72 -38 -92 -13 -20 -27 -55 -31 -79 -4 -23 -17
-60 -30 -82 -12 -22 -32 -79 -43 -127 -11 -49 -29 -103 -40 -120 -11 -18 -27
-67 -36 -108 -10 -41 -27 -95 -40 -120 -13 -25 -31 -79 -40 -120 -10 -41 -29
-95 -43 -118 -13 -24 -36 -85 -50 -135 -14 -50 -35 -112 -48 -137 -12 -25 -26
-65 -30 -90 -4 -25 -20 -64 -35 -87 -15 -23 -30 -61 -34 -84 -4 -22 -18 -63
-32 -90 -13 -27 -32 -82 -41 -122 -9 -40 -33 -105 -55 -145 -21 -40 -38 -79
-38 -87 0 -7 -11 -26 -24 -42 -13 -15 -36 -63 -52 -107 l-28 -79 -44 89 c-24
48 -68 117 -98 151 -33 39 -59 82 -67 111 -8 26 -26 64 -40 85 -14 20 -28 59
-32 86 -4 28 -17 64 -31 83 -14 18 -31 55 -39 82 -8 28 -26 61 -39 76 -13 14
-30 45 -36 70 -6 25 -24 61 -40 81 -16 20 -34 56 -40 80 -7 24 -25 62 -40 84
-16 22 -38 71 -49 109 -12 38 -35 90 -51 114 -17 25 -30 50 -30 56 0 11 -67
155 -95 206 -14 24 -36 69 -69 140 -9 19 -25 49 -36 66 -11 17 -24 55 -30 84
-6 29 -21 67 -33 84 -13 17 -31 52 -40 78 -8 26 -27 62 -40 80 -13 18 -32 56
-41 84 -9 29 -25 59 -35 68 -10 9 -24 37 -31 61 -7 25 -28 68 -46 97 -19 29
-34 62 -34 74 0 33 -20 86 -47 122 -13 18 -31 54 -40 80 -9 26 -27 62 -40 80
-13 18 -32 54 -40 80 -9 26 -22 56 -29 67 -7 11 -22 53 -34 93 -12 40 -33 86
-47 102 -13 16 -30 51 -39 79 -8 27 -25 63 -38 78 -13 15 -31 52 -40 81 -10
29 -28 65 -41 80 -12 15 -34 66 -49 113 -14 48 -32 92 -40 98 -8 7 -22 36 -32
64 -9 29 -28 67 -41 85 -13 18 -32 54 -40 80 -9 26 -29 64 -44 85 -16 22 -30
58 -34 87 -4 28 -18 67 -32 87 -14 21 -32 56 -40 78 -7 22 -24 56 -37 75 -12
19 -30 58 -40 86 -9 29 -26 60 -37 70 -11 9 -31 56 -45 103 -15 47 -35 98 -45
112 -10 14 -27 51 -39 81 -11 31 -27 61 -35 68 -7 6 -26 42 -40 80 -14 38 -32
74 -40 80 -8 6 -21 33 -30 60 -9 26 -30 69 -47 95 -18 27 -35 69 -39 98 -5 27
-20 66 -34 86 -13 20 -32 60 -40 87 -8 28 -24 59 -36 70 -12 10 -30 37 -41 59
-11 22 -29 49 -39 60 -10 11 -25 38 -34 60 -9 22 -27 49 -40 60 -15 13 -37 58
-60 125 -73 214 -77 246 -49 372 14 59 23 78 59 113 57 57 84 74 147 90 29 8
91 25 138 38 99 29 300 67 349 67 37 0 156 43 182 67 23 20 31 162 33 573 l1
335 -27 66 c-14 36 -29 81 -33 101 -4 20 -14 43 -23 51 -15 13 -303 16 -2287
22 -1329 3 -2287 10 -2310 15 -22 5 -277 10 -566 10 -543 0 -622 -5 -654 -40
-15 -16 -40 -143 -36 -180 0 -8 3 -179 5 -380 3 -332 9 -497 22 -557 2 -13 24
-33 57 -51 50 -29 60 -30 272 -46 121 -8 271 -18 334 -21 80 -4 137 -14 193
-31 43 -14 124 -34 179 -44 55 -11 125 -30 157 -44 31 -14 77 -30 102 -37 50
-12 156 -68 200 -105 15 -14 45 -31 67 -40 21 -9 55 -32 76 -50 20 -19 42 -34
48 -34 16 0 208 -190 242 -240 16 -25 40 -56 53 -70 23 -25 59 -87 105 -180
12 -25 34 -59 49 -77 16 -17 31 -50 35 -72 4 -24 20 -57 40 -81 21 -25 35 -55
39 -82 4 -24 24 -73 46 -108 22 -36 40 -71 40 -79 0 -8 13 -38 29 -66 16 -29
36 -78 44 -109 9 -32 28 -71 45 -90 17 -19 32 -50 36 -74 3 -24 18 -55 35 -75
17 -18 35 -55 42 -81 7 -27 24 -61 40 -77 20 -21 30 -43 35 -80 4 -30 16 -62
29 -77 29 -36 41 -60 49 -102 3 -19 18 -46 32 -61 16 -16 34 -55 45 -95 10
-37 30 -84 44 -104 14 -20 34 -59 44 -86 10 -27 30 -66 44 -87 14 -21 29 -58
33 -83 3 -25 18 -59 34 -79 15 -19 33 -56 39 -82 7 -26 25 -62 42 -80 17 -19
32 -51 35 -74 4 -24 20 -56 40 -81 20 -24 37 -56 40 -80 4 -21 18 -56 32 -76
14 -20 33 -63 43 -94 9 -32 28 -71 42 -88 14 -16 31 -54 37 -84 6 -30 24 -72
39 -93 15 -21 35 -59 44 -85 8 -26 27 -62 40 -80 13 -18 31 -53 39 -78 8 -25
27 -62 41 -83 14 -20 28 -56 32 -80 8 -48 20 -73 47 -103 10 -12 25 -45 33
-73 7 -29 25 -63 38 -75 22 -20 47 -79 47 -110 0 -5 13 -30 29 -55 16 -25 33
-63 37 -85 3 -21 19 -52 34 -70 15 -17 35 -56 43 -86 9 -31 27 -66 41 -79 16
-15 30 -47 41 -92 10 -38 26 -80 37 -94 11 -14 30 -53 44 -87 13 -34 33 -71
43 -82 11 -12 25 -43 31 -70 12 -54 24 -82 50 -111 10 -11 25 -45 34 -75 8
-31 27 -66 40 -79 15 -14 29 -44 36 -75 7 -31 22 -63 39 -81 16 -17 33 -51 40
-80 7 -27 23 -66 36 -85 13 -19 32 -55 41 -80 10 -25 28 -61 40 -80 12 -19 28
-55 34 -80 7 -25 23 -57 36 -71 13 -14 33 -55 43 -92 10 -37 30 -84 44 -105
14 -20 35 -62 47 -94 11 -31 27 -61 35 -68 8 -6 21 -35 29 -64 9 -29 25 -65
37 -81 13 -15 30 -56 40 -92 11 -37 30 -78 47 -97 17 -20 32 -50 36 -74 4 -25
18 -55 37 -77 20 -23 33 -49 36 -77 6 -48 24 -88 47 -107 8 -7 22 -38 31 -69
9 -31 30 -71 46 -90 16 -18 29 -43 29 -55 1 -33 25 -93 53 -135 14 -20 28 -51
32 -69 3 -17 22 -53 41 -80 19 -26 34 -57 34 -68 0 -25 34 -99 60 -132 11 -14
20 -34 20 -45 0 -23 26 -76 50 -103 10 -11 24 -40 30 -65 7 -25 25 -70 40
-100 16 -30 39 -79 51 -107 12 -29 26 -53 29 -53 8 0 25 -41 34 -81 3 -14 19
-42 35 -62 15 -20 34 -58 40 -84 7 -27 27 -75 45 -108 18 -33 36 -72 39 -86 4
-14 18 -43 33 -65 15 -21 35 -63 45 -92 10 -29 30 -67 43 -83 14 -16 28 -46
32 -67 7 -41 38 -107 54 -117 5 -3 17 -30 25 -60 9 -29 29 -70 45 -90 15 -19
31 -54 35 -75 4 -23 21 -57 40 -80 18 -21 36 -56 40 -77 3 -21 19 -60 35 -88
15 -27 33 -69 39 -91 6 -23 24 -58 40 -77 16 -20 33 -56 39 -80 6 -24 23 -55
36 -70 21 -23 46 -82 46 -110 0 -5 15 -43 33 -85 48 -108 46 -202 -3 -265 -11
-13 -25 -49 -31 -78 -6 -30 -24 -76 -39 -104 -15 -27 -37 -85 -49 -128 -12
-43 -32 -99 -45 -125 -13 -26 -29 -72 -35 -102 -7 -30 -22 -71 -35 -90 -13
-19 -29 -60 -35 -90 -7 -30 -23 -71 -36 -91 -13 -21 -31 -66 -40 -100 -9 -35
-30 -84 -46 -108 -16 -25 -29 -56 -29 -70 0 -49 -28 -142 -48 -164 -12 -13
-26 -47 -33 -77 -6 -30 -24 -77 -39 -105 -15 -27 -35 -79 -44 -114 -9 -35 -28
-91 -42 -125 -14 -33 -32 -85 -39 -114 -8 -30 -25 -70 -38 -90 -14 -21 -30
-62 -36 -92 -7 -30 -22 -71 -35 -91 -13 -20 -34 -74 -47 -120 -12 -46 -33
-106 -46 -132 -13 -26 -28 -71 -33 -99 -6 -29 -21 -68 -34 -88 -13 -19 -32
-64 -40 -100 -9 -35 -23 -71 -30 -80 -24 -27 -43 -74 -59 -147 -9 -40 -28 -95
-41 -122 -14 -27 -28 -68 -32 -91 -4 -23 -18 -57 -31 -77 -13 -19 -28 -57 -33
-84 -5 -26 -23 -74 -40 -105 -16 -31 -30 -63 -30 -71 0 -21 -57 -178 -74 -205
-8 -13 -19 -48 -26 -79 -6 -31 -22 -71 -35 -89 -13 -18 -29 -58 -36 -89 -6
-31 -24 -77 -40 -102 -16 -25 -36 -79 -45 -120 -9 -41 -27 -95 -40 -121 -13
-26 -29 -71 -35 -100 -6 -29 -22 -69 -36 -89 -13 -21 -31 -65 -39 -99 -8 -34
-23 -74 -34 -87 -11 -14 -20 -32 -20 -39 0 -18 -54 -180 -78 -234 -11 -25 -23
-64 -27 -87 -4 -23 -19 -58 -35 -77 -21 -27 -31 -55 -40 -116 -8 -55 -21 -93
-38 -118 -16 -24 -31 -70 -43 -129 -10 -50 -31 -123 -48 -161 -17 -39 -31 -74
-31 -78 0 -4 -19 -37 -42 -73 -46 -72 -132 -165 -183 -196 -77 -48 -132 -85
-160 -108 -17 -14 -51 -30 -75 -37 -25 -6 -62 -25 -84 -42 -21 -17 -56 -35
-78 -40 -23 -5 -59 -22 -82 -38 -32 -24 -59 -32 -126 -41 -47 -6 -107 -20
-135 -31 -71 -29 -144 -48 -184 -48 -18 0 -72 -13 -120 -29 -86 -29 -150 -38
-311 -46 -139 -6 -193 -12 -223 -24 -16 -6 -82 -11 -148 -11 -78 0 -128 -4
-142 -12 -15 -9 -103 -15 -282 -20 -334 -8 -630 -25 -675 -38 -19 -5 -72 -10
-117 -10 -124 0 -225 -49 -253 -123 -7 -18 -25 -59 -40 -92 -16 -33 -41 -98
-56 -145 -15 -47 -37 -105 -49 -130 -13 -25 -28 -72 -35 -105 -7 -33 -21 -82
-31 -110 -11 -27 -24 -77 -30 -110 -6 -33 -20 -75 -31 -92 -10 -18 -18 -43
-16 -55 5 -34 63 -68 117 -68 25 0 62 -5 81 -10 51 -15 3555 -16 3593 -1 19 7
195 11 541 11 434 0 519 2 549 15 31 13 133 15 706 15 514 0 676 -3 698 -12
47 -21 1878 -47 1953 -28 33 9 564 12 1996 11 1631 -1 1957 1 1985 13 27 11
160 15 629 20 1064 11 1364 17 1407 28 30 7 55 7 90 -1 68 -16 2530 -33 2558
-17 85 47 129 97 160 185 8 23 25 56 39 74 13 17 32 64 42 102 10 43 28 85 47
109 16 21 34 58 39 82 5 24 20 54 34 66 13 13 32 48 40 78 9 30 29 69 44 86
17 20 34 58 45 103 10 40 30 88 46 111 16 22 29 42 29 45 0 18 76 197 100 235
15 25 33 63 40 84 7 21 25 57 41 80 15 23 37 77 48 121 11 44 45 131 75 192
31 61 64 144 75 183 13 45 31 84 51 106 21 25 30 45 30 70 0 22 22 79 61 160
45 92 60 132 56 152 -3 16 2 41 13 62 10 19 63 127 119 240 82 166 101 214
101 249 0 25 6 52 14 60 23 27 66 145 66 184 0 29 6 41 30 58 41 31 77 85 94
143 8 26 22 56 31 66 30 34 76 161 69 193 -5 26 0 35 40 72 44 40 46 45 40 81
-5 37 -3 41 35 72 37 30 41 37 41 78 0 41 4 49 46 87 25 23 57 63 70 89 13 26
33 52 45 58 11 6 29 31 39 55 10 24 28 53 38 63 11 11 27 45 36 75 9 30 23 60
32 68 28 23 122 223 133 282 11 59 2 103 -22 119 -23 15 -92 8 -122 -12 -28
-19 -48 -20 -360 -20 -327 -1 -330 -1 -367 -24 -34 -20 -44 -22 -100 -14 -78
10 -89 1 -77 -69 12 -76 12 -78 -45 -135 -37 -38 -60 -73 -75 -113 -12 -32
-31 -71 -42 -86 -11 -15 -26 -47 -34 -70 -9 -23 -21 -49 -27 -56 -7 -9 -11
-45 -9 -96 l2 -81 -41 -37 c-37 -34 -41 -42 -38 -79 2 -38 -2 -45 -40 -77 -41
-34 -43 -37 -36 -79 7 -50 -8 -64 -46 -44 -35 19 -42 1 -32 -74 10 -77 -1
-101 -43 -90 -37 9 -42 0 -34 -68 9 -73 1 -88 -47 -88 -31 0 -33 -2 -28 -28 6
-32 -8 -48 -46 -54 -18 -2 -26 -10 -28 -28 -6 -38 -20 -50 -53 -43 -28 5 -29
4 -29 -30 0 -31 -13 -48 -133 -168 -118 -118 -136 -141 -155 -194 -18 -50 -39
-77 -121 -162 -79 -82 -101 -111 -109 -146 -12 -45 -52 -104 -97 -138 -14 -12
-35 -40 -47 -62 -11 -23 -36 -55 -55 -71 -20 -16 -42 -45 -50 -63 -16 -40
-181 -206 -226 -229 -46 -24 -67 -44 -89 -89 -22 -45 -202 -225 -225 -225 -8
0 -38 -22 -66 -49 -29 -26 -65 -55 -82 -64 -16 -8 -64 -49 -106 -90 -57 -57
-95 -85 -159 -117 -53 -25 -95 -54 -113 -76 -20 -24 -64 -52 -134 -87 -69 -33
-114 -62 -131 -84 -22 -26 -34 -33 -64 -33 -21 0 -72 -17 -124 -41 -60 -27
-96 -38 -112 -34 -15 4 -37 -2 -59 -15 -22 -13 -56 -21 -93 -23 -47 -2 -70
-10 -118 -40 -50 -31 -69 -37 -114 -37 -35 0 -64 -7 -86 -20 -32 -20 -51 -20
-2262 -20 -1680 0 -2236 3 -2257 12 -41 17 -686 27 -2198 33 l-1309 5 -49 30
c-29 18 -62 30 -83 30 -19 0 -34 4 -34 9 0 5 11 39 25 75 15 41 23 76 19 91
-3 13 1 46 9 72 9 26 18 67 22 89 4 23 21 65 40 94 20 31 36 71 40 101 4 27
19 67 35 91 19 30 32 67 40 121 10 58 20 87 41 113 15 20 35 61 44 92 9 31 29
86 44 122 16 36 32 83 36 105 4 22 20 70 36 106 16 37 34 90 40 118 6 28 22
65 36 81 14 17 34 61 45 98 11 37 29 84 39 104 11 21 25 64 33 97 8 33 26 75
41 95 17 23 29 54 34 91 4 31 17 68 28 84 12 15 35 73 51 128 17 55 39 118 50
140 12 22 28 71 37 109 9 38 27 93 41 123 13 30 31 83 39 119 8 35 30 92 49
126 19 33 39 77 45 96 6 20 26 53 43 75 18 21 42 59 53 84 l21 44 69 -132 c39
-72 79 -149 90 -170 11 -21 32 -52 47 -69 14 -17 29 -50 33 -72 4 -23 21 -57
40 -79 19 -24 35 -56 39 -80 3 -23 18 -55 35 -74 17 -18 35 -55 42 -82 7 -26
24 -62 39 -79 15 -17 35 -57 44 -88 10 -34 24 -62 35 -68 11 -5 29 -35 41 -67
11 -31 29 -68 40 -83 10 -14 28 -50 39 -79 11 -29 27 -61 36 -71 8 -9 26 -43
39 -76 12 -32 34 -76 48 -96 14 -20 28 -55 32 -77 3 -24 19 -55 36 -74 16 -18
38 -59 50 -89 11 -31 27 -61 35 -68 8 -6 27 -35 44 -65 36 -64 89 -100 144
-98 21 1 50 -3 65 -9 69 -27 190 -33 650 -31 575 2 620 2 970 1 350 -1 385 3
435 51 48 45 73 92 82 154 4 28 18 61 31 76 13 16 30 56 38 90 8 34 28 83 44
109 17 26 35 72 41 102 6 30 25 73 40 95 16 22 34 60 41 85 6 24 22 57 34 74
13 17 35 63 49 101 46 124 85 212 111 251 14 22 30 64 37 94 6 30 21 71 34 90
13 19 37 71 53 115 16 44 39 103 50 130 12 28 24 67 27 87 3 21 17 51 31 68
15 17 32 52 40 77 8 26 25 63 38 83 13 19 29 60 35 90 7 30 25 74 41 98 16 24
35 72 44 108 8 37 24 76 36 89 12 13 32 57 45 99 13 42 32 91 43 109 11 17 25
49 32 71 7 21 25 59 40 85 16 25 33 71 40 101 6 30 22 71 35 90 14 20 29 60
35 90 6 30 21 70 35 90 13 19 31 53 38 75 8 22 28 62 45 89 17 27 36 74 42
105 7 31 22 72 35 91 13 19 37 71 54 115 45 121 74 185 105 239 16 26 36 76
43 110 8 33 24 71 35 83 11 12 27 50 35 85 8 35 27 83 43 108 16 25 34 70 40
100 7 30 24 73 40 95 15 22 33 58 39 80 6 22 22 57 36 77 14 20 30 61 36 90 6
29 24 73 40 98 15 25 36 75 45 110 9 36 25 77 36 93 11 15 32 62 48 105 50
134 86 216 113 255 15 22 32 66 38 99 7 35 22 72 36 88 13 16 32 53 43 84 10
30 28 67 39 83 11 15 25 50 31 77 6 27 26 77 44 110 19 34 39 84 45 113 6 28
21 68 35 88 14 19 32 59 42 88 9 29 27 75 39 102 12 28 28 67 34 87 7 21 17
40 22 44 16 10 48 80 59 131 6 26 21 64 34 83 12 19 33 64 45 100 26 73 66
163 116 261 19 36 37 84 41 108 4 23 18 59 32 79 14 20 31 64 39 97 7 33 22
72 33 87 11 15 29 50 40 79 12 29 32 70 45 93 13 23 30 67 39 99 8 33 26 75
40 96 14 20 30 61 36 91 6 29 23 74 40 99 16 26 36 74 44 108 7 34 26 77 41
97 14 19 31 52 36 73 6 21 22 54 35 74 14 21 32 64 39 97 8 33 28 82 44 107
17 26 35 73 42 103 6 31 22 72 35 92 13 19 34 67 47 105 14 39 34 89 46 112
11 23 21 47 21 53 0 6 17 40 39 76 23 37 42 84 46 111 3 27 17 64 31 83 13 20
38 74 55 120 17 47 34 89 38 95 5 5 15 31 24 57 9 26 27 63 41 81 14 18 33 62
42 98 8 35 27 80 40 99 13 20 31 58 40 85 10 28 27 62 39 76 12 15 25 49 29
75 4 29 21 72 41 105 19 31 41 83 48 115 8 33 25 76 39 96 14 21 29 59 33 85
4 27 22 73 41 103 19 31 34 62 34 70 0 8 18 44 40 80 25 41 42 83 46 113 4 26
19 67 34 90 15 23 33 66 39 95 6 29 22 69 36 90 13 20 31 55 38 77 8 22 28 62
45 89 17 27 36 74 43 105 6 31 24 75 39 99 15 23 31 62 34 86 4 24 20 65 37
91 16 26 37 76 45 113 9 36 26 78 39 94 14 16 31 50 39 76 7 26 25 64 39 85
14 20 28 56 32 80 4 23 22 67 41 98 18 31 39 81 45 110 6 30 23 72 38 94 16
22 37 69 48 105 28 86 89 229 107 249 19 21 46 95 46 126 0 12 12 39 26 60 14
21 39 73 54 114 48 127 90 225 104 241 23 26 36 58 46 112 6 29 20 66 31 82
12 16 39 74 61 130 22 56 47 121 57 146 10 25 29 62 43 82 14 20 33 67 42 103
9 37 25 79 36 93 11 15 33 63 49 107 44 119 81 206 102 235 10 14 27 59 39
100 12 40 32 88 45 105 13 16 28 55 34 86 7 31 25 78 42 104 16 26 37 77 45
113 9 37 24 76 35 88 10 11 32 58 48 105 38 110 81 207 107 244 12 17 29 48
38 70 10 22 27 51 40 65 12 14 29 36 38 50 9 14 48 60 86 102 39 43 78 91 87
107 8 16 24 33 36 36 11 4 51 34 87 67 37 34 88 74 115 90 26 17 47 34 47 38
0 20 125 109 168 120 25 6 59 22 74 35 16 14 55 32 86 41 31 9 95 31 142 49
101 39 266 90 334 105 64 14 214 31 341 39 55 3 110 12 122 19 12 7 56 12 103
12 100 0 154 23 176 76 29 70 27 557 -4 794 -10 77 -43 154 -71 169 -11 6 -40
11 -64 11 -25 0 -60 6 -78 14 -46 19 -330 22 -362 4 -35 -20 -974 -30 -2637
-28 -159 0 -334 0 -387 -1 -214 -1 -749 17 -762 25 -8 5 -138 10 -290 12 -254
3 -280 1 -327 -17z m4043 -15766 c3 -7 -10 -21 -29 -33 -30 -18 -33 -25 -38
-77 -5 -58 -22 -78 -38 -46 -13 27 1 152 18 164 20 13 82 7 87 -8z"/>
</g>
</svg>
