<?xml version="1.0" standalone="no"?>
<!DOCTYPE svg PUBLIC "-//W3C//DTD SVG 20010904//EN"
 "http://www.w3.org/TR/2001/REC-SVG-20010904/DTD/svg10.dtd">
<svg version="1.0" xmlns="http://www.w3.org/2000/svg"
 width="2500.000000pt" height="2500.000000pt" viewBox="0 0 2500.000000 2500.000000"
 preserveAspectRatio="xMidYMid meet">

<g transform="translate(0.000000,2500.000000) scale(0.100000,-0.100000)"
fill="#000000" stroke="none">
<path d="M23391 19495 c-40 -19 -77 -35 -82 -35 -14 0 -132 -69 -185 -107 -24
-18 -64 -43 -89 -54 -25 -12 -50 -30 -56 -40 -5 -10 -25 -27 -44 -37 -75 -38
-311 -257 -395 -366 -25 -32 -71 -88 -103 -125 -32 -36 -72 -91 -89 -121 -17
-30 -41 -71 -53 -90 -50 -79 -103 -177 -110 -200 -4 -14 -20 -45 -36 -70 -16
-25 -35 -64 -42 -86 -8 -22 -26 -56 -40 -77 -14 -21 -33 -64 -42 -95 -9 -31
-29 -77 -45 -102 -15 -25 -31 -56 -35 -70 -7 -27 -65 -159 -120 -275 -18 -38
-36 -81 -40 -95 -15 -49 -183 -386 -234 -470 -227 -368 -581 -676 -906 -787
-94 -32 -290 -73 -323 -68 -15 3 -90 9 -167 14 -165 12 -317 40 -473 87 -62
19 -130 34 -150 34 -20 0 -65 13 -100 30 -34 16 -81 34 -105 40 -23 7 -59 23
-80 37 -22 13 -58 31 -80 39 -23 8 -59 26 -79 40 -21 13 -62 33 -92 45 -30 11
-60 27 -67 35 -7 9 -38 29 -68 45 -96 51 -174 99 -185 114 -6 8 -33 23 -60 35
-27 11 -66 35 -87 53 -21 18 -59 48 -84 67 -54 42 -113 88 -192 152 -32 26
-78 63 -103 83 -52 40 -115 95 -168 145 -20 19 -48 43 -61 52 -13 9 -58 47
-99 85 -163 150 -242 220 -298 265 -70 56 -114 93 -172 148 -23 22 -47 40 -51
40 -11 0 -181 132 -265 205 -19 17 -55 46 -81 65 -25 19 -60 47 -78 61 -18 15
-59 43 -92 63 -86 53 -120 76 -173 119 -26 20 -52 37 -59 37 -7 0 -30 15 -50
34 -21 18 -51 40 -68 49 -42 21 -134 81 -171 111 -17 14 -53 35 -80 46 -27 12
-58 30 -69 40 -11 11 -37 26 -57 34 -20 9 -53 27 -73 40 -20 14 -58 32 -85 41
-26 9 -54 22 -60 30 -6 8 -42 26 -80 40 -38 14 -74 33 -80 40 -7 8 -37 24 -68
35 -32 12 -73 32 -92 45 -19 13 -66 31 -105 40 -38 9 -86 27 -105 40 -26 18
-63 28 -143 39 -68 10 -127 25 -161 41 -60 29 -170 54 -231 55 -69 1 -83 9
-136 89 -72 106 -145 179 -188 187 -44 9 -124 -31 -198 -98 -29 -26 -62 -48
-73 -48 -11 0 -41 20 -65 44 -24 25 -59 49 -77 55 -18 5 -47 15 -65 22 -29 12
-37 10 -86 -14 -50 -24 -59 -34 -115 -129 -75 -128 -117 -173 -212 -228 -71
-41 -170 -126 -190 -161 -5 -9 -17 -52 -25 -95 -21 -97 -31 -117 -95 -179 -29
-28 -71 -86 -97 -134 -43 -79 -45 -87 -40 -141 10 -95 15 -101 167 -204 65
-44 178 -138 235 -195 51 -52 124 -64 322 -54 205 11 266 4 365 -41 59 -27 84
-45 108 -77 58 -80 70 -193 30 -274 -46 -92 -83 -102 -255 -75 -62 11 -166 15
-340 15 -242 -1 -252 -2 -320 -26 -38 -14 -88 -29 -110 -33 -61 -10 -92 -26
-110 -53 -9 -13 -35 -33 -58 -43 -72 -31 -150 -122 -198 -229 -50 -113 -49
-146 2 -266 30 -68 44 -87 94 -128 98 -78 131 -90 239 -85 100 4 139 20 155
61 32 82 114 238 130 246 11 6 32 11 48 11 50 0 176 -30 202 -49 14 -10 53
-26 86 -36 33 -9 65 -21 71 -26 21 -18 240 -126 280 -139 21 -7 60 -23 86 -36
26 -13 71 -29 100 -35 29 -6 71 -22 93 -35 49 -28 165 -54 243 -54 31 0 84 -7
117 -15 92 -22 205 -19 341 11 128 28 221 72 310 147 25 20 49 37 53 37 4 0
40 24 80 54 62 46 76 53 99 46 61 -17 147 -77 220 -152 202 -210 371 -372 477
-458 31 -25 73 -59 94 -77 21 -18 57 -42 82 -53 42 -20 86 -48 193 -125 27
-19 54 -35 60 -35 7 0 27 -11 46 -25 18 -13 58 -32 88 -40 30 -9 78 -29 106
-45 28 -16 71 -34 96 -40 25 -7 62 -21 83 -32 21 -10 84 -30 140 -42 56 -13
134 -35 172 -49 42 -15 114 -30 180 -36 61 -7 137 -16 170 -22 64 -10 343 -31
640 -48 173 -10 185 -12 320 -56 131 -43 277 -108 354 -158 51 -34 200 -168
253 -228 90 -101 128 -150 128 -163 0 -6 14 -34 31 -62 43 -66 112 -204 143
-284 71 -185 177 -434 192 -450 7 -9 20 -36 29 -60 9 -24 29 -65 45 -90 17
-26 30 -49 30 -53 0 -9 111 -190 130 -212 10 -11 25 -35 35 -54 34 -67 258
-357 399 -516 115 -130 377 -388 433 -426 26 -18 62 -44 79 -58 18 -14 57 -46
89 -71 105 -82 179 -149 192 -172 8 -16 12 -76 13 -198 0 -108 5 -202 14 -245
8 -38 17 -128 21 -200 7 -144 19 -207 46 -246 10 -15 23 -49 29 -76 6 -27 18
-60 28 -74 9 -14 32 -48 50 -75 41 -62 130 -139 179 -155 21 -7 56 -24 77 -38
29 -19 55 -26 105 -29 95 -5 113 5 151 82 31 63 33 73 41 233 5 101 15 190 25
223 30 105 36 175 18 217 -9 21 -22 59 -30 84 -8 25 -23 57 -34 71 -28 36
-105 221 -125 302 -9 38 -21 123 -25 188 -6 88 -13 125 -27 145 -10 16 -26 44
-34 63 -9 19 -37 53 -62 75 -25 22 -104 95 -175 163 -123 116 -133 129 -200
250 -99 179 -112 223 -124 422 -5 91 -9 233 -8 315 1 109 -3 165 -14 205 -9
30 -22 145 -30 255 -13 182 -31 328 -41 345 -2 3 -18 78 -35 165 -18 88 -40
175 -50 195 -9 19 -25 60 -35 90 -9 30 -28 73 -41 96 -12 22 -29 68 -37 103
-9 39 -24 72 -40 89 -60 62 -97 116 -108 155 -6 22 -22 57 -35 76 -46 68 -44
70 145 211 68 50 182 148 253 218 177 173 227 248 374 558 19 39 34 74 34 79
0 4 32 77 71 163 39 87 80 180 90 207 57 152 320 622 432 774 174 236 413 422
787 613 111 57 227 117 260 133 32 17 67 37 77 46 10 9 39 28 65 43 50 28 149
142 173 199 7 17 23 45 35 60 37 46 50 111 50 236 -1 140 -9 180 -46 224 -40
46 -146 117 -191 128 -78 18 -135 11 -212 -26z"/>
<path d="M3917 14023 c-5 -4 -309 -10 -675 -13 -637 -6 -821 -14 -872 -40 -8
-4 -28 -29 -43 -55 -26 -44 -28 -55 -23 -109 26 -261 31 -4338 6 -4426 -15
-52 -12 -190 6 -267 10 -45 13 -86 9 -124 -9 -75 19 -144 62 -156 15 -4 287
-8 603 -8 542 1 577 2 614 20 28 13 44 30 57 60 17 39 19 79 19 545 1 391 4
513 15 544 7 23 16 60 20 83 6 38 10 43 38 48 26 4 218 8 772 15 17 0 149 -2
295 -6 370 -9 501 9 594 83 79 63 102 113 132 291 l25 146 -9 460 c-6 254 -8
465 -5 469 6 10 22 540 31 1047 5 269 4 368 -5 408 -9 35 -13 139 -13 300 -1
292 -10 358 -62 432 -61 87 -201 194 -277 211 -21 5 -188 11 -372 14 -325 6
-722 20 -864 31 -39 3 -74 2 -78 -3z m132 -626 c104 -52 160 -142 187 -299 14
-78 15 -213 6 -1121 -10 -1156 -5 -1091 -82 -1161 -60 -54 -127 -69 -279 -64
-69 3 -134 8 -144 13 -9 4 -20 19 -23 34 -2 14 -11 53 -19 86 -12 50 -15 257
-17 1215 -3 1054 -2 1159 14 1205 9 28 19 62 22 76 5 22 13 27 53 33 27 4 68
11 93 15 65 13 116 4 189 -32z"/>
<path d="M10935 14021 c-11 -5 -108 -11 -215 -15 -354 -11 -379 -15 -467 -61
-25 -14 -51 -25 -58 -25 -30 0 -96 -63 -127 -121 -18 -34 -39 -72 -46 -85 -31
-55 -34 -137 -27 -579 15 -935 26 -1674 25 -1775 -1 -178 0 -335 5 -611 4
-215 2 -277 -10 -323 -17 -66 -22 -473 -5 -522 5 -16 10 -190 12 -386 l3 -357
27 -28 c36 -38 43 -72 24 -118 -30 -72 -14 -104 69 -137 72 -29 256 -38 545
-27 41 1 127 -4 190 -11 168 -21 314 -19 373 3 83 32 79 1 81 656 1 505 0
1281 -2 1426 -1 28 -3 501 -6 1051 -6 1132 -6 1132 61 1251 75 134 132 174
257 181 l81 4 65 -44 c50 -34 68 -53 79 -84 8 -21 27 -73 43 -114 l30 -75 -2
-375 c-3 -741 11 -2458 21 -2600 6 -80 12 -183 15 -230 6 -103 10 -118 27
-101 7 7 12 46 13 104 0 51 8 130 17 177 10 48 17 133 17 195 0 91 3 115 19
142 11 17 21 53 23 80 3 41 7 50 31 61 40 19 49 51 51 177 1 61 5 116 10 123
4 7 20 19 37 27 26 14 29 20 29 68 0 61 5 69 45 88 28 13 30 19 33 72 3 55 5
60 38 79 18 11 34 24 34 29 0 6 11 21 25 34 22 23 32 25 110 25 l85 0 17 35
c9 20 26 38 38 41 11 2 83 3 159 2 l139 -3 12 -34 c8 -25 20 -38 41 -44 16 -6
32 -15 36 -21 4 -6 8 -69 8 -140 l0 -129 33 -36 32 -36 -3 -345 c-1 -190 0
-355 3 -367 7 -31 33 -29 47 5 12 28 28 512 32 1007 2 196 5 255 17 275 12 21
15 146 20 750 5 681 6 733 27 864 18 118 27 147 53 188 74 114 196 155 322
108 60 -22 85 -46 115 -105 39 -78 52 -139 64 -283 11 -139 22 -609 16 -717
-1 -27 -1 -468 0 -980 4 -1401 4 -1980 0 -2087 -3 -88 -1 -101 22 -142 24 -44
24 -46 7 -81 -9 -20 -17 -45 -17 -56 0 -28 27 -76 48 -88 22 -11 325 -21 782
-24 417 -2 433 0 468 61 l21 38 -3 1029 c-2 567 -7 1397 -11 1845 -8 906 3
1467 29 1555 23 72 20 154 -10 284 -37 167 -63 207 -169 266 -27 15 -66 38
-85 51 -64 43 -114 46 -680 44 -294 -1 -571 -1 -615 -1 -44 1 -485 3 -980 5
-612 3 -909 8 -928 15 -33 13 -760 14 -792 2z m-708 -4113 c22 -21 23 -27 23
-189 0 -178 -5 -199 -50 -199 -43 0 -50 24 -52 173 -3 180 -2 201 5 221 9 23
47 20 74 -6z"/>
<path d="M16258 14024 c-3 -3 -51 -13 -107 -23 -68 -13 -114 -27 -139 -43 -21
-14 -56 -35 -79 -46 -52 -27 -128 -124 -152 -195 -11 -30 -29 -96 -41 -148
-20 -88 -21 -112 -16 -389 2 -162 10 -353 17 -425 13 -144 16 -860 4 -1039 -5
-77 -4 -126 5 -165 10 -43 13 -352 15 -1336 2 -1309 3 -1334 40 -1365 15 -13
104 -15 780 -20 443 -4 418 -6 461 32 59 52 64 74 65 295 0 216 -16 649 -27
700 -7 34 31 209 47 219 5 3 9 13 9 22 0 9 15 27 33 38 63 42 307 40 374 -2
12 -8 38 -14 58 -14 l35 0 0 -49 c0 -26 5 -73 11 -102 7 -34 11 -246 12 -577
l2 -524 23 -18 c12 -10 46 -21 75 -25 28 -3 295 -5 592 -3 517 3 542 4 580 23
59 30 81 75 75 155 -2 36 -4 596 -3 1245 1 926 4 1190 14 1225 7 25 13 74 14
110 1 36 5 166 9 290 3 124 8 556 10 960 l5 735 -25 60 c-14 33 -34 85 -46
115 -23 61 -67 110 -172 190 -67 51 -71 53 -190 73 -117 21 -155 21 -1242 24
-616 2 -1123 1 -1126 -3z m1253 -650 c54 -30 103 -93 118 -153 20 -79 31 -512
36 -1511 3 -554 1 -720 -11 -819 -19 -168 -23 -171 -272 -174 -150 -2 -162 -1
-184 19 -12 12 -31 24 -40 27 -13 5 -18 17 -18 46 0 22 -6 68 -13 103 -10 49
-13 305 -12 1158 0 1192 -1 1164 56 1234 31 37 107 82 164 97 49 13 122 2 176
-27z"/>
<path d="M6177 13900 c-30 -26 -30 -27 -17 -79 9 -41 11 -368 7 -1539 -11
-2781 -10 -2974 10 -3125 8 -58 18 -88 39 -119 35 -49 112 -109 174 -132 25
-10 59 -26 75 -36 17 -11 51 -23 75 -29 95 -21 2447 -34 2577 -14 146 22 238
93 266 206 9 36 17 86 17 110 0 25 7 61 15 80 21 51 20 316 -1 372 -19 49 -26
470 -22 1375 2 327 3 1065 3 1640 0 963 -1 1052 -18 1140 -20 105 -33 132 -80
160 -34 21 -37 21 -357 3 -158 -9 -478 -8 -518 2 -24 5 -53 1 -104 -15 -70
-22 -70 -22 -97 -3 -42 31 -61 34 -97 17 -38 -18 -52 -51 -35 -82 8 -14 11
-178 12 -509 0 -268 4 -715 9 -993 5 -341 5 -521 -2 -554 -8 -36 -7 -69 2
-118 9 -50 12 -240 11 -680 0 -416 4 -634 11 -682 7 -39 13 -179 14 -311 l2
-240 -38 -92 c-64 -157 -79 -177 -168 -220 -66 -32 -89 -38 -157 -40 l-80 -4
-84 58 c-119 82 -124 94 -131 308 -3 94 -9 175 -13 181 -10 17 -6 2271 5 3023
11 711 12 699 -44 837 -32 80 -59 97 -166 106 -234 20 -288 21 -321 3 -29 -15
-36 -15 -74 -1 -33 12 -109 16 -356 19 l-314 4 -30 -27z m2090 -3282 c4 -7 6
-87 5 -178 -3 -130 0 -174 12 -210 21 -61 23 -393 2 -462 -20 -63 -34 -88 -51
-88 -33 0 -39 41 -36 250 5 360 18 655 30 678 13 25 26 28 38 10z"/>
<path d="M13137 9744 c-4 -4 -7 -85 -7 -179 l0 -172 -36 -32 c-32 -30 -35 -36
-29 -74 7 -49 2 -58 -42 -81 -18 -9 -33 -20 -33 -25 0 -5 16 -18 35 -30 39
-23 47 -60 19 -83 -9 -7 -34 -30 -55 -50 -21 -20 -47 -39 -59 -43 -21 -7 -27
-30 -9 -40 6 -4 52 -8 102 -10 51 -1 104 -6 118 -10 23 -6 28 -3 38 26 21 60
15 88 -24 110 -46 27 -48 64 -5 99 30 24 31 28 41 148 5 68 6 128 2 135 -4 7
-10 79 -13 162 -4 125 -8 150 -20 153 -9 1 -19 0 -23 -4z"/>
<path d="M2376 7498 c-19 -27 -21 -99 -4 -180 9 -45 9 -68 -1 -107 -8 -30 -14
-142 -16 -294 -2 -135 -7 -281 -10 -324 -11 -118 17 -323 44 -323 5 0 32 46
60 103 l51 103 0 104 0 103 24 -22 c19 -18 33 -22 72 -19 45 3 49 5 49 28 0
19 -9 29 -35 42 -41 21 -158 144 -165 173 -2 11 -6 99 -8 195 -4 158 -2 177
14 200 23 30 59 131 59 163 0 31 -54 77 -90 77 -18 0 -35 -8 -44 -22z"/>
</g>
</svg>
