<svg viewBox="0 0 81 81" x="0" y="0" fill="none" xmlns="http://www.w3.org/2000/svg"><defs><clipPath id="clip15_34_213" xmlns="http://www.w3.org/2000/svg"><rect width="40" height="40" fill="white" transform="translate(20.5, 20.5)"/></clipPath></defs><g id="Services_2" data-node-id="I120:1579;120:1537;120:1465" xmlns="http://www.w3.org/2000/svg"><g id="Group 1000005938_2" data-node-id="I120:1579;120:1537;120:1465;120:1427"><path id="Ellipse 6_3" data-node-id="I120:1579;120:1537;120:1465;120:1427;120:1415" opacity="0.3" d="M80.5,40.5c0,22.09 -17.909,40 -40,40c-22.091,0 -40,-17.91 -40,-40c0,-22.09 17.909,-40 40,-40c22.091,0 40,17.91 40,40zM11.407,40.5c0,16.07 13.025,29.09 29.093,29.09c16.068,0 29.093,-13.02 29.093,-29.09c0,-16.07 -13.025,-29.09 -29.093,-29.09c-16.068,0 -29.093,13.02 -29.093,29.09z" fill="#2F2E30"/><circle id="Ellipse 5_3" data-node-id="I120:1579;120:1537;120:1465;120:1427;120:1416" cx="40.5" cy="40.5" r="29" fill="black"/></g><g id="Icon-Customer service" data-node-id="I120:1579;120:1537;120:1465;120:1428" clip-path="url(#clip15_34_213)"><path id="Vector_175" data-node-id="I120:1579;120:1537;120:1465;120:1428;138:1524" d="M33.833,45.5c0,-1.84 -1.492,-3.33 -3.333,-3.33c-1.841,0 -3.333,1.49 -3.333,3.33v3.33c0,1.84 1.492,3.34 3.333,3.34c1.841,0 3.333,-1.5 3.333,-3.34z" stroke="white" stroke-width="2" stroke-linecap="round" stroke-linejoin="round"/><path id="Vector_176" data-node-id="I120:1579;120:1537;120:1465;120:1428;138:1525" d="M53.833,45.5c0,-1.84 -1.492,-3.33 -3.333,-3.33c-1.841,0 -3.333,1.49 -3.333,3.33v3.33c0,1.84 1.492,3.34 3.333,3.34c1.841,0 3.333,-1.5 3.333,-3.34z" stroke="white" stroke-width="2" stroke-linecap="round" stroke-linejoin="round"/><path id="Vector_177" data-node-id="I120:1579;120:1537;120:1465;120:1428;138:1526" d="M27.167,45.5v-5c0,-3.54 1.404,-6.93 3.905,-9.43c2.5,-2.5 5.892,-3.9 9.428,-3.9c3.536,0 6.928,1.4 9.428,3.9c2.501,2.5 3.905,5.89 3.905,9.43v5" stroke="white" stroke-width="2" stroke-linecap="round" stroke-linejoin="round"/><path id="Vector_178" data-node-id="I120:1579;120:1537;120:1465;120:1428;138:1527" d="M50.5,52.17c0,1.32 -1.054,2.59 -2.929,3.53c-1.875,0.94 -4.419,1.47 -7.071,1.47" stroke="white" stroke-width="2" stroke-linecap="round" stroke-linejoin="round"/></g></g></svg>