<svg viewBox="0 0 81 81" x="0" y="0" fill="none" xmlns="http://www.w3.org/2000/svg"><defs><clipPath id="clip14_34_213" xmlns="http://www.w3.org/2000/svg"><rect width="40" height="40" fill="white" transform="translate(20.5, 20.5)"/></clipPath></defs><g id="Services" data-node-id="I120:1579;120:1519;120:1452" xmlns="http://www.w3.org/2000/svg"><g id="Group 1000005938" data-node-id="I120:1579;120:1519;120:1452;120:1421"><path id="Ellipse 6_2" data-node-id="I120:1579;120:1519;120:1452;120:1421;120:1415" opacity="0.3" d="M80.5,40.5c0,22.09 -17.909,40 -40,40c-22.091,0 -40,-17.91 -40,-40c0,-22.09 17.909,-40 40,-40c22.091,0 40,17.91 40,40zM11.407,40.5c0,16.07 13.025,29.09 29.093,29.09c16.068,0 29.093,-13.02 29.093,-29.09c0,-16.07 -13.025,-29.09 -29.093,-29.09c-16.068,0 -29.093,13.02 -29.093,29.09z" fill="#2F2E30"/><circle id="Ellipse 5_2" data-node-id="I120:1579;120:1519;120:1452;120:1421;120:1416" cx="40.5" cy="40.5" r="29" fill="black"/></g><g id="icon-delivery" data-node-id="I120:1579;120:1519;120:1452;120:1380" clip-path="url(#clip14_34_213)"><path id="Vector_168" data-node-id="I120:1579;120:1519;120:1452;120:1380;120:1368" d="M32.167,52.17c1.841,0 3.333,-1.5 3.333,-3.34c0,-1.84 -1.492,-3.33 -3.333,-3.33c-1.841,0 -3.334,1.49 -3.334,3.33c0,1.84 1.493,3.34 3.334,3.34z" stroke="#FAFAFA" stroke-width="2" stroke-linecap="round" stroke-linejoin="round"/><path id="Vector_169" data-node-id="I120:1579;120:1519;120:1452;120:1380;120:1369" d="M48.833,52.17c1.841,0 3.334,-1.5 3.334,-3.34c0,-1.84 -1.493,-3.33 -3.334,-3.33c-1.841,0 -3.333,1.49 -3.333,3.33c0,1.84 1.492,3.34 3.333,3.34z" stroke="#FAFAFA" stroke-width="2" stroke-linecap="round" stroke-linejoin="round"/><path id="Vector_170" data-node-id="I120:1579;120:1519;120:1452;120:1380;120:1370" d="M28.833,48.83h-1.333c-1.105,0 -2,-0.89 -2,-2v-4.66M23.833,28.83h16.334c1.104,0 2,0.9 2,2v18M35.5,48.83h10M52.167,48.83h1.333c1.105,0 2,-0.89 2,-2v-8M55.5,38.83h-13.333M55.5,38.83l-4.417,-7.36c-0.362,-0.6 -1.013,-0.97 -1.715,-0.97h-7.201" stroke="#FAFAFA" stroke-width="2" stroke-linecap="round" stroke-linejoin="round"/><path id="Vector_171" data-node-id="I120:1579;120:1519;120:1452;120:1380;120:1379" d="M28.5,48.5h-1.333c-1.105,0 -2,-0.9 -2,-2v-4.67M23.5,28.5h16.333c1.105,0 2,0.9 2,2v18M35.5,48.5h9.667M52.5,48.5h0.667c1.104,0 2,-0.9 2,-2v-8M55.167,38.5h-13.334M55.167,38.5l-4.418,-7.36c-0.361,-0.6 -1.012,-0.97 -1.715,-0.97h-7.201" stroke="#FAFAFA" stroke-width="2" stroke-linecap="round" stroke-linejoin="round"/><path id="Vector_172" data-node-id="I120:1579;120:1519;120:1452;120:1380;120:1371" d="M25.5,32.32h6.667" stroke="#FAFAFA" stroke-width="2" stroke-linecap="round" stroke-linejoin="round"/><path id="Vector_173" data-node-id="I120:1579;120:1519;120:1452;120:1380;120:1372" d="M22.318,35.95h6.667" stroke="#FAFAFA" stroke-width="2" stroke-linecap="round" stroke-linejoin="round"/><path id="Vector_174" data-node-id="I120:1579;120:1519;120:1452;120:1380;120:1373" d="M25.5,39.59h6.667" stroke="#FAFAFA" stroke-width="2" stroke-linecap="round" stroke-linejoin="round"/></g></g></svg>