<svg viewBox="0 0 81 81" x="0" y="0" fill="none" xmlns="http://www.w3.org/2000/svg"><g id="Services_3" data-node-id="I120:1579;226:5016;120:1495" xmlns="http://www.w3.org/2000/svg"><g id="Group 1000005938_3" data-node-id="I120:1579;226:5016;120:1495;120:1441"><path id="Ellipse 6_4" data-node-id="I120:1579;226:5016;120:1495;120:1441;120:1415" opacity="0.3" d="M80.5,40.5c0,22.09 -17.91,40 -40,40c-22.09,0 -40,-17.91 -40,-40c0,-22.09 17.91,-40 40,-40c22.09,0 40,17.91 40,40zM11.41,40.5c0,16.07 13.02,29.09 29.09,29.09c16.07,0 29.09,-13.02 29.09,-29.09c0,-16.07 -13.02,-29.09 -29.09,-29.09c-16.07,0 -29.09,13.02 -29.09,29.09z" fill="#2F2E30"/><circle id="Ellipse 5_4" data-node-id="I120:1579;226:5016;120:1495;120:1441;120:1416" cx="40.5" cy="40.5" r="29" fill="black"/></g><g id="Icon-secure" data-node-id="I120:1579;226:5016;120:1495;120:1442"><g id="vuesax/outline/shield-tick" data-node-id="I120:1579;226:5016;120:1495;120:1442;120:1751"><g id="shield-tick" data-node-id="I120:1579;226:5016;120:1495;120:1442;120:1752"><path id="Vector_179" data-node-id="I120:1579;226:5016;120:1495;120:1442;120:1753" d="M28.6,51.1v0c-0.87,-0.65 -1.67,-1.68 -2.26,-2.84c-0.58,-1.16 -0.92,-2.41 -0.92,-3.49v-12.4c0,-2.36 1.75,-4.91 3.97,-5.73v-0.01l8.32,-3.11v0c0.75,-0.28 1.75,-0.43 2.77,-0.43c1.03,0 2.02,0.15 2.78,0.43v0l8.31,3.11l0.01,0.01c2.22,0.82 3.97,3.37 3.97,5.73v12.38c0,1.09 -0.34,2.34 -0.93,3.5c-0.58,1.16 -1.38,2.18 -2.25,2.83v0l-7.17,5.35v0l-0.01,0.01c-1.28,0.99 -2.97,1.49 -4.69,1.49c-1.72,0 -3.41,-0.5 -4.74,-1.48v0zM38.24,24.93v0l-8.32,3.12v0c-0.82,0.31 -1.57,0.97 -2.1,1.74c-0.53,0.77 -0.89,1.7 -0.89,2.59v12.39c0,0.89 0.31,1.92 0.77,2.83c0.46,0.91 1.09,1.77 1.8,2.3v0l7.17,5.35c1.06,0.79 2.46,1.17 3.83,1.17c1.38,0 2.78,-0.38 3.85,-1.17v0l7.17,-5.35v0c0.71,-0.54 1.35,-1.39 1.8,-2.31c0.46,-0.91 0.76,-1.93 0.76,-2.82v-12.4c0,-0.89 -0.36,-1.82 -0.89,-2.58c-0.53,-0.77 -1.27,-1.44 -2.09,-1.76v0h-0.01l-8.31,-3.11v-0.01h-0.01c-0.64,-0.22 -1.47,-0.33 -2.27,-0.32c-0.8,0 -1.62,0.11 -2.26,0.34z" fill="#FAFAFA" stroke="#FAFAFA"/><path id="Vector_180" data-node-id="I120:1579;226:5016;120:1495;120:1442;120:1754" d="M37.91,41.55l0.36,0.36l0.35,-0.36l6.28,-6.28c0.29,-0.29 0.78,-0.29 1.06,0c0.29,0.29 0.29,0.77 0,1.06l-7.16,7.17c-0.15,0.15 -0.34,0.22 -0.53,0.22c-0.19,0 -0.38,-0.07 -0.53,-0.22l-2.69,-2.69c-0.28,-0.28 -0.28,-0.77 0,-1.06c0.29,-0.28 0.78,-0.28 1.06,0z" fill="#FAFAFA" stroke="#FAFAFA"/></g></g></g></g></svg>