<svg xmlns="http://www.w3.org/2000/svg" width="500" height="500" style="width:100%;height:100%;transform:translate3d(0,0,0);content-visibility:visible" viewBox="0 0 500 500"><defs><clipPath id="g"><path d="M0 0h500v500H0z"/></clipPath><clipPath id="o"><path d="M0 0h500v500H0z"/></clipPath><clipPath id="n"><path d="M0 0h500v500H0z"/></clipPath><clipPath id="l"><path d="M0 0h500v500H0z"/></clipPath><clipPath id="j"><path d="M0 0h500v500H0z"/></clipPath><clipPath id="h"><path d="M0 0h500v500H0z"/></clipPath><filter id="a" width="100%" height="100%" x="0%" y="0%" filterUnits="objectBoundingBox"><feComponentTransfer in="SourceGraphic"><feFuncA tableValues="1.0 0.0" type="table"/></feComponentTransfer></filter><filter id="c" width="100%" height="100%" x="0%" y="0%" filterUnits="objectBoundingBox"><feComponentTransfer in="SourceGraphic"><feFuncA tableValues="1.0 0.0" type="table"/></feComponentTransfer></filter><filter id="e" width="100%" height="100%" x="0%" y="0%" filterUnits="objectBoundingBox"><feComponentTransfer in="SourceGraphic"><feFuncA tableValues="1.0 0.0" type="table"/></feComponentTransfer></filter><mask id="m" mask-type="alpha"><g filter="url(#a)"><path fill="#fff" d="M0 0h500v500H0z" opacity="0"/><use xmlns:ns1="http://www.w3.org/1999/xlink" ns1:href="#b"/></g></mask><mask id="k" mask-type="alpha"><g filter="url(#c)"><path fill="#fff" d="M0 0h500v500H0z" opacity="0"/><use xmlns:ns2="http://www.w3.org/1999/xlink" ns2:href="#d"/></g></mask><mask id="i" mask-type="alpha"><g filter="url(#e)"><path fill="#fff" d="M0 0h500v500H0z" opacity="0"/><use xmlns:ns3="http://www.w3.org/1999/xlink" ns3:href="#f"/></g></mask><g id="b" class="primary design" style="display:none"><path/><path fill-opacity="0" stroke-linecap="round" stroke-linejoin="round" class="primary"/></g><g id="d" class="primary design" style="display:none"><path/><path fill-opacity="0" stroke-linecap="round" stroke-linejoin="round" class="primary"/></g><g id="f" class="primary design" style="display:none"><path/><path fill-opacity="0" stroke-linecap="round" stroke-linejoin="round" class="primary"/></g></defs><g clip-path="url(#g)"><g clip-path="url(#h)" style="display:none"><g class="primary design" style="display:none"><path class="primary"/><path fill="none" class="primary"/></g><g class="primary design" style="display:none"><path fill="none" class="primary"/></g><g class="primary design" style="display:none"><path fill="none" class="primary"/></g><g class="primary design" style="display:none"><path fill="none" class="primary"/></g><g class="primary design" mask="url(#i)" style="display:none"><path class="primary"/></g><g class="primary design" style="display:none"><path class="primary"/></g></g><g clip-path="url(#j)" style="display:none"><g class="primary design" mask="url(#k)" style="display:none"><path class="primary"/></g><g class="primary design" style="display:none"><path class="primary"/></g><g class="primary design" style="display:none"><path class="primary"/></g><g class="primary design" style="display:none"><path class="primary"/></g></g><g clip-path="url(#l)" style="display:none"><g class="primary design" mask="url(#m)" style="display:none"><path class="primary"/></g><g class="primary design" style="display:none"><path class="primary"/><path fill="none" class="primary"/></g><g class="primary design" style="display:none"><path class="primary"/></g><g class="primary design" style="display:none"><path class="primary"/></g><g class="primary design" style="display:none"><path class="primary"/></g><g class="primary design" style="display:none"><path class="primary"/></g><g class="primary design" style="display:none"><path class="primary"/></g></g><g clip-path="url(#n)" style="display:block"><g class="primary design" style="display:block"><path d="M425.488 423.98c-6.875 8.124-17.081 12.916-27.914 12.916 0 0-103.122-.105-144.183-.105-56.988 0-149.965.105-149.965.105-10.833 0-21.039-4.792-27.914-12.916-6.875-8.333-9.792-19.166-8.125-29.79l16.353-93.585 18.228-104.318c2.916-17.499 18.124-30.207 35.831-30.207h29.373v62.496c0 11.458 9.374 20.832 20.832 20.832s20.832-9.374 20.832-20.832V166.08h83.328v62.496c0 11.458 9.374 20.832 20.832 20.832s20.832-9.374 20.832-20.832V166.08h29.373c17.707 0 32.915 12.708 35.831 30.207a65311841.672 65311841.672 0 0 0 34.581 197.903c1.667 10.624-1.25 21.457-8.125 29.79z" class="primary"/></g><g class="primary design" style="display:block"><path d="M333.828 146.498v19.582h-41.664v-19.582c0-23.748-18.749-42.914-41.664-42.914-22.915 0-41.664 19.166-41.664 42.914v19.582h-41.664v-19.582c0-46.664 37.289-84.578 83.328-84.578s83.328 37.914 83.328 84.578z" class="primary"/></g></g><g clip-path="url(#o)" style="display:none"><g class="primary design" style="display:none"><path class="primary"/></g><g class="primary design" style="display:none"><path class="primary"/></g></g></g></svg>